/vscmnt/brussel_pixiu_data/_data_brussel/112/vsc11236/PredSimResults/SUBJ11mtu3D/worker2.mot
version=1
nRows=5
nColumns=50
inDegrees=yes
endheader
                time	         pelvis_tilt	         pelvis_list	     pelvis_rotation	           pelvis_tx	           pelvis_ty	           pelvis_tz	       hip_flexion_r	     hip_adduction_r	      hip_rotation_r	        knee_angle_r	       ankle_angle_r	         mtp_angle_r	       hip_flexion_l	     hip_adduction_l	      hip_rotation_l	        knee_angle_l	       ankle_angle_l	         mtp_angle_l	    lumbar_extension	      lumbar_bending	     lumbar_rotation	 ercspn_r/activation	 intobl_r/activation	 extobl_r/activation	    abd_r/activation	    add_r/activation	hamstrings_r/activation	bifemsh_r/activation	glut_max_r/activation	iliopsoas_r/activation	rect_fem_r/activation	  vasti_r/activation	gastroc_r/activation	 soleus_r/activation	tib_ant_r/activation	 ercspn_l/activation	 intobl_l/activation	 extobl_l/activation	    abd_l/activation	    add_l/activation	hamstrings_l/activation	bifemsh_l/activation	glut_max_l/activation	iliopsoas_l/activation	rect_fem_l/activation	  vasti_l/activation	gastroc_l/activation	 soleus_l/activation	tib_ant_l/activation	
          0.00000000	         -3.58176248	         -0.97521102	          4.87180153	          0.00000000	          0.94422643	         -0.00630848	         31.25930219	         -1.77096738	         -2.67435250	        -10.52205236	          4.10224366	          0.24966588	        -13.43627727	         -2.78944624	         -0.54361333	        -10.34436902	         12.18266820	         27.32653768	        -14.03199888	         -1.17360397	         -3.73492384	          0.02439510	          0.19837793	          0.06300094	          0.00999999	          0.17365893	          0.04977166	          0.05816114	          0.07987414	          0.05064465	          0.03718620	          0.01541479	          0.00999999	          0.00999999	          0.42492547	          0.00999999	          0.00999999	          0.00999999	          0.03218974	          0.01476519	          0.02429540	          0.24941833	          0.01955554	          0.12541461	          0.00999999	          0.00999999	          0.11115310	          0.26011548	          0.01098472	
          0.01290728	         -3.64038791	         -1.04389003	          4.95466785	          0.01802307	          0.94228065	         -0.00521588	         30.85318569	         -1.60060502	         -2.82180362	        -11.55875798	          3.67634624	          0.20544212	        -13.95617346	         -3.02331622	         -0.82853005	        -11.24877221	         11.53931497	         29.09779224	        -13.58916450	         -0.69828412	         -3.92083207	          0.02007626	          0.16325772	          0.05184745	          0.04613318	          0.16798873	          0.05151499	          0.04786447	          0.11225672	          0.04167868	          0.03060287	          0.01268581	          0.01476518	          0.01476518	          0.45519014	          0.01862008	          0.00999999	          0.00999999	          0.02649096	          0.01215120	          0.02824708	          0.20526208	          0.01609349	          0.10321159	          0.00999999	          0.00999999	          0.09147490	          0.24008982	          0.00999999	
          0.02581456	         -3.68452060	         -1.10462131	          5.01471616	          0.03624759	          0.94066408	         -0.00406328	         30.45423083	         -1.45126221	         -2.97584782	        -12.65805109	          3.14757644	          0.20588298	        -14.31198810	         -3.25412747	         -1.12524905	        -12.46611169	         10.74703763	         30.95159237	        -13.13076787	         -0.22646872	         -4.09584229	          0.02197813	          0.13435508	          0.04266854	          0.09697639	          0.20116735	          0.04239494	          0.03939069	          0.12336328	          0.03430001	          0.02518504	          0.02771480	          0.01215120	          0.01215120	          0.50412934	          0.02874989	          0.00999999	          0.00999999	          0.02180109	          0.00999999	          0.02324631	          0.16892312	          0.01324434	          0.09818340	          0.00999999	          0.00999999	          0.07528047	          0.21603413	          0.00999999	
          0.03872184	         -3.71531959	         -1.15010443	          5.04899385	          0.05443610	          0.93956551	         -0.00285370	         30.14016645	         -1.32038528	         -3.14948094	        -13.87422326	          2.48374907	          0.16589721	        -14.40848532	         -3.47388535	         -1.43100659	        -14.12633038	          9.77999026	         32.87817487	        -12.68485413	          0.23173368	         -4.25535357	          0.01890993	          0.11056927	          0.03511463	          0.11835428	          0.24122806	          0.04131064	          0.03241709	          0.11773661	          0.02822765	          0.02072636	          0.09506349	          0.00999999	          0.00999999	          0.54912956	          0.05281997	          0.00999999	          0.00999999	          0.01794149	          0.05627253	          0.03233255	          0.13901749	          0.01089961	          0.08080132	          0.00999999	          0.00999999	          0.06195305	          0.17778811	          0.00999999	
          0.05162911	         -3.73326018	         -1.17915042	          5.05810100	          0.07250940	          0.93907093	         -0.00160466	         29.83878118	         -1.19993705	         -3.31661518	        -15.16365561	          2.06322142	          0.11943469	        -14.17617129	         -3.68232248	         -1.75285860	        -16.33724687	          8.63930289	         34.79871853	        -12.25705272	          0.67368428	         -4.39717707	          0.01556218	          0.09099443	          0.02889805	          0.14415061	          0.26404319	          0.04761608	          0.02667807	          0.11465370	          0.02323031	          0.01705703	          0.14371565	          0.00999999	          0.00999999	          0.56202883	          0.06941861	          0.00999999	          0.00999999	          0.01476518	          0.10414325	          0.03886633	          0.11440627	          0.00999999	          0.06649650	          0.00999999	          0.00999999	          0.05098507	          0.14631306	          0.00999999	
